<svg width="264.51836547851565px" height="121.60000610351562px" xmlns="http://www.w3.org/2000/svg" viewBox="117.74081726074218 14.199996948242188 264.51836547851565 121.60000610351562" style="background: rgba(0, 0, 0, 0);" preserveAspectRatio="xMidYMid"><defs><linearGradient id="editing-sticker-gradient" x1="0.5" y1="0.2" x2="0.5" y2="0.8"><stop offset="0" stop-color="#fd9"></stop><stop offset="1" stop-color="#9df"></stop></linearGradient><filter id="editing-sticker" x="-100%" y="-100%" width="300%" height="300%"><feMorphology operator="erode" radius="1" in="SourceAlpha" result="alpha-erode"></feMorphology><feConvolveMatrix order="3,3" divisor="1" kernelMatrix="0 1 0 1 1 1 0 1 0" in="alpha-erode" result="alpha-round"></feConvolveMatrix><feMorphology operator="dilate" radius="3.5" in="alpha-round" result="dilate-shadow"></feMorphology><feGaussianBlur in="dilate-shadow" stdDeviation="1.5" result="shadow"></feGaussianBlur><feFlood flood-color="#fff" result="flood-sticker"></feFlood><feComposite operator="in" in="flood-sticker" in2="alpha-round" result="comp-sticker"></feComposite><feMorphology operator="dilate" radius="3" in="comp-sticker" result="morph-sticker"></feMorphology><feConvolveMatrix order="3,3" divisor="1" kernelMatrix="0 1 0 1 1 1 0 1 0" in="morph-sticker" result="sticker"></feConvolveMatrix><feMerge><feMergeNode in="shadow"></feMergeNode><feMergeNode in="sticker"></feMergeNode><feMergeNode in="SourceGraphic"></feMergeNode></feMerge></filter></defs><g filter="url(#editing-sticker)"><g transform="translate(160.89274418354034, 98.99999618530273)"><path d="M6.53 0L-0.83 0L10.75-42.24L24.13-42.24L27.07-18.11L38.98-42.24L50.18-42.24L51.33-10.62L51.33-10.62Q51.58-4.35 54.66-2.43L54.66-2.43L54.66-2.43Q53.95-1.15 51.90 0.06L51.90 0.06L51.90 0.06Q49.86 1.28 47.14 1.28L47.14 1.28L47.14 1.28Q44.42 1.28 42.82 0.51L42.82 0.51L42.82 0.51Q41.22-0.26 40.32-1.54L40.32-1.54L40.32-1.54Q38.72-3.84 38.72-8.26L38.72-8.26L38.72-28.03L26.11 0L18.18 0L13.70-28.74L6.53 0ZM71.36 1.28L71.36 1.28L71.36 1.28Q57.28 1.28 57.28-11.97L57.28-11.97L57.28-11.97Q57.28-21.38 62.46-27.46L62.46-27.46L62.46-27.46Q67.97-33.92 77.50-33.92L77.50-33.92L77.50-33.92Q84.42-33.92 87.94-30.72L87.94-30.72L87.94-30.72Q91.46-27.52 91.46-20.80L91.46-20.80L91.46-20.80Q91.46-10.56 85.95-4.61L85.95-4.61L85.95-4.61Q80.58 1.28 71.36 1.28ZM73.02-26.56L73.02-26.56L73.02-26.56Q72.26-24.83 71.65-22.24L71.65-22.24L71.65-22.24Q71.04-19.65 70.27-15.55L70.27-15.55L70.27-15.55Q69.50-11.46 69.50-6.40L69.50-6.40L69.50-6.40Q69.50-4.74 70.05-3.65L70.05-3.65L70.05-3.65Q70.59-2.56 72.06-2.56L72.06-2.56L72.06-2.56Q73.54-2.56 74.46-3.26L74.46-3.26L74.46-3.26Q75.39-3.97 76.10-5.63L76.10-5.63L76.10-5.63Q77.38-8.58 78.40-14.05L78.40-14.05L78.40-14.05Q79.42-19.52 79.52-21.89L79.52-21.89L79.52-21.89Q79.62-24.26 79.62-26.02L79.62-26.02L79.62-26.02Q79.62-27.78 79.10-28.93L79.10-28.93L79.10-28.93Q78.59-30.08 77.15-30.08L77.15-30.08L77.15-30.08Q75.71-30.08 74.75-29.18L74.75-29.18L74.75-29.18Q73.79-28.29 73.02-26.56ZM115.26-17.98L115.26-17.98L115.26-17.98Q117.57-22.08 117.57-26.24L117.57-26.24L117.57-26.24Q117.57-28.99 115.58-28.99L115.58-28.99L115.58-28.99Q114.05-28.99 112.45-26.37L112.45-26.37L112.45-26.37Q110.78-23.74 110.27-20.35L110.27-20.35L106.94 0L93.70 1.28L100.22-32.64L110.78-33.92L109.63-27.46L109.63-27.46Q112.77-33.92 119.81-33.92L119.81-33.92L119.81-33.92Q123.52-33.92 125.54-32L125.54-32L125.54-32Q127.55-30.08 127.55-26.14L127.55-26.14L127.55-26.14Q127.55-22.21 124.96-19.71L124.96-19.71L124.96-19.71Q122.37-17.22 117.95-17.22L117.95-17.22L117.95-17.22Q116.03-17.22 115.26-17.98ZM153.54-37.12L153.54-37.12L153.54-37.12Q154.43-38.66 154.43-40.32L154.43-40.32L154.43-40.32Q154.43-43.26 152.64-43.26L152.64-43.26L152.64-43.26Q149.89-43.26 148.74-37.63L148.74-37.63L147.78-32.64L153.60-32.64L153.22-29.76L147.20-29.76L141.44 0L128.51 1.28L134.66-29.76L130.11-29.76L130.69-32.64L135.17-32.64L136.51-37.70L136.51-37.70Q137.66-42.37 142.59-44.54L142.59-44.54L142.59-44.54Q146.18-46.08 152.19-46.08L152.19-46.08L152.19-46.08Q158.21-46.08 160.90-44.54L160.90-44.54L160.90-44.54Q163.58-43.01 163.58-40.96L163.58-40.96L163.58-40.96Q163.58-38.91 161.98-37.63L161.98-37.63L161.98-37.63Q160.38-36.35 158.59-36.35L158.59-36.35L158.59-36.35Q155.07-36.35 153.54-37.12ZM173.89-3.52L173.89-3.52L173.89-3.52Q171.90 1.28 165.57 1.28L165.57 1.28L165.57 1.28Q162.30 1.28 160.26-0.96L160.26-0.96L160.26-0.96Q158.53-2.94 158.53-4.93L158.53-4.93L158.53-4.93Q158.53-10.11 160.90-20.22L160.90-20.22L163.26-32.64L176.26-33.92L172.35-13.70L172.35-13.70Q171.26-8.96 171.26-7.30L171.26-7.30L171.26-7.30Q171.26-3.65 173.89-3.52ZM164.42-41.54L164.42-41.54L164.42-41.54Q164.42-44.03 166.50-45.38L166.50-45.38L166.50-45.38Q168.58-46.72 171.58-46.72L171.58-46.72L171.58-46.72Q174.59-46.72 176.42-45.38L176.42-45.38L176.42-45.38Q178.24-44.03 178.24-41.54L178.24-41.54L178.24-41.54Q178.24-39.04 176.22-37.76L176.22-37.76L176.22-37.76Q174.21-36.48 171.20-36.48L171.20-36.48L171.20-36.48Q168.19-36.48 166.30-37.76L166.30-37.76L166.30-37.76Q164.42-39.04 164.42-41.54Z" fill="url(#editing-sticker-gradient)" stroke="#000" stroke-width="2.5"></path></g></g><style>text {
  font-size: 64px;
  font-family: Arial Black;
  dominant-baseline: central;
  text-anchor: middle;
}</style></svg>